<svg xmlns="http://www.w3.org/2000/svg" width="64" height="64" viewBox="0 0 24 24" fill="none">
  <rect x="0" y="0" width="24" height="24" rx="6" fill="#ffffff"/>
  <g stroke="#000000" stroke-width="1.8" stroke-linecap="round" stroke-linejoin="round">
    <path d="M7.5 9.4V6.8c0-1.3 1-2.3 2.3-2.3h4.4c1.3 0 2.3 1 2.3 2.3v2.6"/>
    <path d="M8.6 9.4c-1.6 1.2-2.6 3-2.6 5.2 0 3.6 2.8 6 6 6s6-2.4 6-6c0-2.2-1-4-2.6-5.2"/>
    <path d="M9.5 14.7c.7.8 1.6 1.2 2.5 1.2s1.8-.4 2.5-1.2"/>
    <path d="M9.3 12.6h.2"/>
    <path d="M14.5 12.6h.2"/>
  </g>
</svg>
